<svg width="372" height="264" viewBox="0 0 372 264" fill="none" xmlns="http://www.w3.org/2000/svg">
<path d="M176.447 20.8947C175.101 20.8947 174 19.7934 174 18.4474C174 17.1013 175.101 16 176.447 16C177.793 16 178.895 17.1013 178.895 18.4474C178.895 19.7934 177.793 20.8947 176.447 20.8947Z" fill="#434348"/>
<path d="M80.7633 48.6777C79.4172 48.6777 78.3159 47.5764 78.3159 46.2303C78.3159 44.8843 79.4172 43.783 80.7633 43.783C82.1093 43.783 83.2107 44.8843 83.2107 46.2303C83.2107 47.5764 82.1093 48.6777 80.7633 48.6777Z" fill="#434348"/>
<path d="M218.428 164.928C217.082 164.928 215.98 163.826 215.98 162.48C215.98 161.134 217.082 160.033 218.428 160.033C219.774 160.033 220.875 161.134 220.875 162.48C220.875 163.826 219.774 164.928 218.428 164.928Z" fill="#434348"/>
<path d="M222.099 151.467C220.753 151.467 219.651 150.366 219.651 149.02C219.651 147.674 220.753 146.573 222.099 146.573C223.445 146.573 224.546 147.674 224.546 149.02C224.546 150.366 223.445 151.467 222.099 151.467Z" fill="#434348"/>
<path d="M94.4474 4.89474C93.1013 4.89474 92 3.79342 92 2.44737C92 1.10132 93.1013 0 94.4474 0C95.7934 0 96.8947 1.10132 96.8947 2.44737C96.8947 3.79342 95.7934 4.89474 94.4474 4.89474Z" fill="#434348"/>
<path d="M72.8092 101.296C71.4631 101.296 70.3618 100.195 70.3618 98.8487C70.3618 97.5027 71.4631 96.4014 72.8092 96.4014C74.1552 96.4014 75.2566 97.5027 75.2566 98.8487C75.2566 100.195 74.1552 101.296 72.8092 101.296Z" fill="#434348"/>
<path d="M97.4474 111.895C96.1013 111.895 95 110.793 95 109.447C95 108.101 96.1013 107 97.4474 107C98.7934 107 99.8947 108.101 99.8947 109.447C99.8947 110.793 98.7934 111.895 97.4474 111.895Z" fill="#434348"/>
<path d="M74.0328 94.5656C72.6868 94.5656 71.5854 93.4643 71.5854 92.1183C71.5854 90.7722 72.6868 89.6709 74.0328 89.6709C75.3789 89.6709 76.4802 90.7722 76.4802 92.1183C76.4802 93.4643 75.3789 94.5656 74.0328 94.5656Z" fill="#434348"/>
<path d="M22.0262 173.895C20.6802 173.895 19.5789 172.793 19.5789 171.447C19.5789 170.101 20.6802 169 22.0262 169C23.3723 169 24.4736 170.101 24.4736 171.447C24.4736 172.793 23.3723 173.895 22.0262 173.895Z" fill="#434348"/>
<path d="M60.5724 7.07223C59.2263 7.07223 58.125 5.97091 58.125 4.62486C58.125 3.27881 59.2263 2.17749 60.5724 2.17749C61.9184 2.17749 63.0197 3.27881 63.0197 4.62486C63.0197 5.97091 61.9184 7.07223 60.5724 7.07223Z" fill="#434348"/>
<path d="M93.6119 119.039C92.2659 119.039 91.1646 117.938 91.1646 116.592C91.1646 115.246 92.2659 114.145 93.6119 114.145C94.958 114.145 96.0593 115.246 96.0593 116.592C96.0593 117.938 94.958 119.039 93.6119 119.039Z" fill="#434348"/>
<path d="M151.737 197.355C150.391 197.355 149.29 196.254 149.29 194.908C149.29 193.562 150.391 192.46 151.737 192.46C153.083 192.46 154.184 193.562 154.184 194.908C154.184 196.254 153.083 197.355 151.737 197.355Z" fill="#434348"/>
<path d="M151.737 197.355C150.391 197.355 149.29 196.254 149.29 194.908C149.29 193.562 150.391 192.46 151.737 192.46C153.083 192.46 154.184 193.562 154.184 194.908C154.184 196.254 153.083 197.355 151.737 197.355Z" fill="#434348"/>
<path d="M81.9869 26.0393C80.6409 26.0393 79.5396 24.938 79.5396 23.5919C79.5396 22.2458 80.6409 21.1445 81.9869 21.1445C83.333 21.1445 84.4343 22.2458 84.4343 23.5919C84.4343 24.938 83.333 26.0393 81.9869 26.0393Z" fill="#434348"/>
<path d="M114.447 108.895C113.101 108.895 112 107.793 112 106.447C112 105.101 113.101 104 114.447 104C115.793 104 116.895 105.101 116.895 106.447C116.895 107.793 115.793 108.895 114.447 108.895Z" fill="#434348"/>
<path d="M86.1317 84.8025C84.7856 84.8025 83.6843 83.7011 83.6843 82.3551C83.6843 81.009 84.7856 79.9077 86.1317 79.9077C87.4777 79.9077 88.5791 81.009 88.5791 82.3551C88.5791 83.7011 87.4777 84.8025 86.1317 84.8025Z" fill="#434348"/>
<path d="M127.447 108.895C126.101 108.895 125 107.793 125 106.447C125 105.101 126.101 104 127.447 104C128.793 104 129.895 105.101 129.895 106.447C129.895 107.793 128.793 108.895 127.447 108.895Z" fill="#434348"/>
<path d="M106.447 108.506C105.101 108.506 104 107.405 104 106.059C104 104.713 105.101 103.612 106.447 103.612C107.793 103.612 108.895 104.713 108.895 106.059C108.895 107.405 107.793 108.506 106.447 108.506Z" fill="#434348"/>
<path d="M83.8224 50.5131C82.4763 50.5131 81.375 49.4118 81.375 48.0658C81.375 46.7197 82.4763 45.6184 83.8224 45.6184C85.1684 45.6184 86.2697 46.7197 86.2697 48.0658C86.2697 49.4118 85.1684 50.5131 83.8224 50.5131Z" fill="#434348"/>
<path d="M5.50645 214.487C4.1604 214.487 3.05908 213.385 3.05908 212.039C3.05908 210.693 4.1604 209.592 5.50645 209.592C6.8525 209.592 7.95382 210.693 7.95382 212.039C7.95382 213.385 6.8525 214.487 5.50645 214.487Z" fill="#434348"/>
<path d="M70.4474 62.8947C69.1013 62.8947 68 61.7934 68 60.4474C68 59.1013 69.1013 58 70.4474 58C71.7934 58 72.8947 59.1013 72.8947 60.4474C72.8947 61.7934 71.7934 62.8947 70.4474 62.8947Z" fill="#434348"/>
<path d="M66.6908 87.8357C65.3447 87.8357 64.2434 86.7343 64.2434 85.3883C64.2434 84.0422 65.3447 82.9409 66.6908 82.9409C68.0368 82.9409 69.1381 84.0422 69.1381 85.3883C69.1381 86.7343 68.0368 87.8357 66.6908 87.8357Z" fill="#434348"/>
<path d="M2.44737 213.263C1.10132 213.263 0 212.162 0 210.816C0 209.47 1.10132 208.368 2.44737 208.368C3.79342 208.368 4.89474 209.47 4.89474 210.816C4.89474 212.162 3.79342 213.263 2.44737 213.263Z" fill="#434348"/>
<path d="M8.56578 235.289C7.21972 235.289 6.11841 234.188 6.11841 232.842C6.11841 231.496 7.21972 230.395 8.56578 230.395C9.91183 230.395 11.0131 231.496 11.0131 232.842C11.0131 234.188 9.91183 235.289 8.56578 235.289Z" fill="#434348"/>
<path d="M8.56578 234.678C7.21972 234.678 6.11841 233.576 6.11841 232.23C6.11841 230.884 7.21972 229.783 8.56578 229.783C9.91183 229.783 11.0131 230.884 11.0131 232.23C11.0131 233.576 9.91183 234.678 8.56578 234.678Z" fill="#434348"/>
<path d="M203.447 142.895C202.101 142.895 201 141.793 201 140.447C201 139.101 202.101 138 203.447 138C204.793 138 205.895 139.101 205.895 140.447C205.895 141.793 204.793 142.895 203.447 142.895Z" fill="#434348"/>
<path d="M135.447 5.89474C134.101 5.89474 133 4.79342 133 3.44737C133 2.10132 134.101 1 135.447 1C136.793 1 137.895 2.10132 137.895 3.44737C137.895 4.79342 136.793 5.89474 135.447 5.89474Z" fill="#434348"/>
<path d="M30.5919 238.961C29.2458 238.961 28.1445 237.859 28.1445 236.513C28.1445 235.167 29.2458 234.066 30.5919 234.066C31.938 234.066 33.0393 235.167 33.0393 236.513C33.0393 237.859 31.938 238.961 30.5919 238.961Z" fill="#434348"/>
<path d="M181.447 167.895C180.101 167.895 179 166.793 179 165.447C179 164.101 180.101 163 181.447 163C182.793 163 183.895 164.101 183.895 165.447C183.895 166.793 182.793 167.895 181.447 167.895Z" fill="#434348"/>
<path d="M369.553 248.75C368.207 248.75 367.105 247.649 367.105 246.303C367.105 244.957 368.207 243.855 369.553 243.855C370.899 243.855 372 244.957 372 246.303C372 247.649 370.899 248.75 369.553 248.75Z" fill="#434348"/>
<path d="M98.9803 81.7434C97.6343 81.7434 96.533 80.6421 96.533 79.296C96.533 77.9499 97.6343 76.8486 98.9803 76.8486C100.326 76.8486 101.428 77.9499 101.428 79.296C101.428 80.6421 100.326 81.7434 98.9803 81.7434Z" fill="#434348"/>
<path d="M92.8619 83.5791C91.5159 83.5791 90.4146 82.4777 90.4146 81.1317C90.4146 79.7856 91.5159 78.6843 92.8619 78.6843C94.208 78.6843 95.3093 79.7856 95.3093 81.1317C95.3093 82.4777 94.208 83.5791 92.8619 83.5791Z" fill="#434348"/>
<path d="M214.145 182.671C212.799 182.671 211.698 181.57 211.698 180.224C211.698 178.878 212.799 177.776 214.145 177.776C215.491 177.776 216.592 178.878 216.592 180.224C216.592 181.57 215.491 182.671 214.145 182.671Z" fill="#434348"/>
<path d="M203.131 177.165C201.785 177.165 200.684 176.063 200.684 174.717C200.684 173.371 201.785 172.27 203.131 172.27C204.478 172.27 205.579 173.371 205.579 174.717C205.579 176.063 204.478 177.165 203.131 177.165Z" fill="#434348"/>
<path d="M203.131 177.165C201.785 177.165 200.684 176.063 200.684 174.717C200.684 173.371 201.785 172.27 203.131 172.27C204.478 172.27 205.579 173.371 205.579 174.717C205.579 176.063 204.478 177.165 203.131 177.165Z" fill="#434348"/>
<path d="M214.756 171.658C213.41 171.658 212.309 170.557 212.309 169.211C212.309 167.864 213.41 166.763 214.756 166.763C216.103 166.763 217.204 167.864 217.204 169.211C217.204 170.557 216.103 171.658 214.756 171.658Z" fill="#434348"/>
<path d="M214.756 171.658C213.41 171.658 212.309 170.557 212.309 169.211C212.309 167.864 213.41 166.763 214.756 166.763C216.103 166.763 217.204 167.864 217.204 169.211C217.204 170.557 216.103 171.658 214.756 171.658Z" fill="#434348"/>
<path d="M252.079 171.046C250.733 171.046 249.632 169.945 249.632 168.599C249.632 167.253 250.733 166.151 252.079 166.151C253.425 166.151 254.526 167.253 254.526 168.599C254.526 169.945 253.425 171.046 252.079 171.046Z" fill="#434348"/>
<path d="M274.717 164.928C273.371 164.928 272.27 163.826 272.27 162.48C272.27 161.134 273.371 160.033 274.717 160.033C276.063 160.033 277.165 161.134 277.165 162.48C277.165 163.826 276.063 164.928 274.717 164.928Z" fill="#434348"/>
<path d="M73.2831 68.8947C71.937 68.8947 70.8357 67.7934 70.8357 66.4474C70.8357 65.1013 71.937 64 73.2831 64C74.6291 64 75.7304 65.1013 75.7304 66.4474C75.7304 67.7934 74.6291 68.8947 73.2831 68.8947Z" fill="#434348"/>
<path d="M118.447 108.895C117.101 108.895 116 107.793 116 106.447C116 105.101 117.101 104 118.447 104C119.793 104 120.895 105.101 120.895 106.447C120.895 107.793 119.793 108.895 118.447 108.895Z" fill="#434348"/>
<path d="M109.506 107.895C108.16 107.895 107.059 106.793 107.059 105.447C107.059 104.101 108.16 103 109.506 103C110.853 103 111.954 104.101 111.954 105.447C111.954 106.793 110.853 107.895 109.506 107.895Z" fill="#434348"/>
<path d="M83.8224 79.8816C82.4763 79.8816 81.375 78.7802 81.375 77.4342C81.375 76.0881 82.4763 74.9868 83.8224 74.9868C85.1684 74.9868 86.2697 76.0881 86.2697 77.4342C86.2697 78.7802 85.1684 79.8816 83.8224 79.8816Z" fill="#434348"/>
<path d="M128.447 105.895C127.101 105.895 126 104.793 126 103.447C126 102.101 127.101 101 128.447 101C129.793 101 130.895 102.101 130.895 103.447C130.895 104.793 129.793 105.895 128.447 105.895Z" fill="#434348"/>
<path d="M109.52 82.9409C108.174 82.9409 107.073 81.8396 107.073 80.4935C107.073 79.1475 108.174 78.0461 109.52 78.0461C110.866 78.0461 111.967 79.1475 111.967 80.4935C111.967 81.8396 110.866 82.9409 109.52 82.9409Z" fill="#434348"/>
<path d="M109.52 87.8357C108.174 87.8357 107.073 86.7343 107.073 85.3883C107.073 84.0422 108.174 82.9409 109.52 82.9409C110.866 82.9409 111.967 84.0422 111.967 85.3883C111.967 86.7343 110.866 87.8357 109.52 87.8357Z" fill="#434348"/>
<path d="M111.967 85.3881C110.621 85.3881 109.52 84.2868 109.52 82.9408C109.52 81.5947 110.621 80.4934 111.967 80.4934C113.313 80.4934 114.415 81.5947 114.415 82.9408C114.415 84.2868 113.313 85.3881 111.967 85.3881Z" fill="#434348"/>
<path d="M111.967 85.3881C110.621 85.3881 109.52 84.2868 109.52 82.9408C109.52 81.5947 110.621 80.4934 111.967 80.4934C113.313 80.4934 114.415 81.5947 114.415 82.9408C114.415 84.2868 113.313 85.3881 111.967 85.3881Z" fill="#434348"/>
<path d="M111.967 85.3881C110.621 85.3881 109.52 84.2868 109.52 82.9408C109.52 81.5947 110.621 80.4934 111.967 80.4934C113.313 80.4934 114.415 81.5947 114.415 82.9408C114.415 84.2868 113.313 85.3881 111.967 85.3881Z" fill="#434348"/>
<path d="M123.592 54.1843C122.246 54.1843 121.145 53.083 121.145 51.7369C121.145 50.3909 122.246 49.2896 123.592 49.2896C124.938 49.2896 126.039 50.3909 126.039 51.7369C126.039 53.083 124.938 54.1843 123.592 54.1843Z" fill="#434348"/>
<path d="M123.592 54.1843C122.246 54.1843 121.145 53.083 121.145 51.7369C121.145 50.3909 122.246 49.2896 123.592 49.2896C124.938 49.2896 126.039 50.3909 126.039 51.7369C126.039 53.083 124.938 54.1843 123.592 54.1843Z" fill="#434348"/>
<path d="M167.033 67.6447C165.687 67.6447 164.585 66.5434 164.585 65.1974C164.585 63.8513 165.687 62.75 167.033 62.75C168.379 62.75 169.48 63.8513 169.48 65.1974C169.48 66.5434 168.379 67.6447 167.033 67.6447Z" fill="#434348"/>
<path d="M123.592 54.1843C122.246 54.1843 121.145 53.083 121.145 51.7369C121.145 50.3909 122.246 49.2896 123.592 49.2896C124.938 49.2896 126.039 50.3909 126.039 51.7369C126.039 53.083 124.938 54.1843 123.592 54.1843Z" fill="#434348"/>
<path d="M66.4474 143.895C65.1013 143.895 64 142.793 64 141.447C64 140.101 65.1013 139 66.4474 139C67.7934 139 68.8947 140.101 68.8947 141.447C68.8947 142.793 67.7934 143.895 66.4474 143.895Z" fill="#434348"/>
<path d="M94.8356 90.8947C93.4895 90.8947 92.3882 89.7934 92.3882 88.4474C92.3882 87.1013 93.4895 86 94.8356 86C96.1816 86 97.2829 87.1013 97.2829 88.4474C97.2829 89.7934 96.1816 90.8947 94.8356 90.8947Z" fill="#434348"/>
<path d="M104.625 87.2236C103.279 87.2236 102.177 86.1223 102.177 84.7762C102.177 83.4302 103.279 82.3289 104.625 82.3289C105.971 82.3289 107.072 83.4302 107.072 84.7762C107.072 86.1223 105.971 87.2236 104.625 87.2236Z" fill="#434348"/>
<path d="M108.296 89.6711C106.95 89.6711 105.849 88.5698 105.849 87.2237C105.849 85.8777 106.95 84.7764 108.296 84.7764C109.642 84.7764 110.743 85.8777 110.743 87.2237C110.743 88.5698 109.642 89.6711 108.296 89.6711Z" fill="#434348"/>
<path d="M108.296 90.2829C106.95 90.2829 105.849 89.1816 105.849 87.8356C105.849 86.4895 106.95 85.3882 108.296 85.3882C109.642 85.3882 110.743 86.4895 110.743 87.8356C110.743 89.1816 109.642 90.2829 108.296 90.2829Z" fill="#434348"/>
<path d="M44.0528 73.7631C42.7068 73.7631 41.6055 72.6618 41.6055 71.3158C41.6055 69.9697 42.7068 68.8684 44.0528 68.8684C45.3989 68.8684 46.5002 69.9697 46.5002 71.3158C46.5002 72.6618 45.3989 73.7631 44.0528 73.7631Z" fill="#434348"/>
<path d="M23.2499 109.25C21.9038 109.25 20.8025 108.149 20.8025 106.803C20.8025 105.457 21.9038 104.355 23.2499 104.355C24.5959 104.355 25.6972 105.457 25.6972 106.803C25.6972 108.149 24.5959 109.25 23.2499 109.25Z" fill="#434348"/>
<path d="M124.447 107.895C123.101 107.895 122 106.793 122 105.447C122 104.101 123.101 103 124.447 103C125.793 103 126.895 104.101 126.895 105.447C126.895 106.793 125.793 107.895 124.447 107.895Z" fill="#434348"/>
<path d="M69.1383 79.8816C67.7922 79.8816 66.6909 78.7802 66.6909 77.4342C66.6909 76.0881 67.7922 74.9868 69.1383 74.9868C70.4843 74.9868 71.5857 76.0881 71.5857 77.4342C71.5857 78.7802 70.4843 79.8816 69.1383 79.8816Z" fill="#434348"/>
<path d="M69.1383 80.4934C67.7922 80.4934 66.6909 79.3921 66.6909 78.046C66.6909 76.6999 67.7922 75.5986 69.1383 75.5986C70.4843 75.5986 71.5857 76.6999 71.5857 78.046C71.5857 79.3921 70.4843 80.4934 69.1383 80.4934Z" fill="#434348"/>
<path d="M168.868 104.355C167.522 104.355 166.421 103.254 166.421 101.908C166.421 100.562 167.522 99.4604 168.868 99.4604C170.214 99.4604 171.316 100.562 171.316 101.908C171.316 103.254 170.214 104.355 168.868 104.355Z" fill="#434348"/>
<path d="M83.8224 70.7038C82.4763 70.7038 81.375 69.6025 81.375 68.2565C81.375 66.9104 82.4763 65.8091 83.8224 65.8091C85.1684 65.8091 86.2697 66.9104 86.2697 68.2565C86.2697 69.6025 85.1684 70.7038 83.8224 70.7038Z" fill="#434348"/>
<path d="M80.6253 83.5791C79.2793 83.5791 78.178 82.4777 78.178 81.1317C78.178 79.7856 79.2793 78.6843 80.6253 78.6843C81.9714 78.6843 83.0727 79.7856 83.0727 81.1317C83.0727 82.4777 81.9714 83.5791 80.6253 83.5791Z" fill="#434348"/>
<path d="M83.8224 79.2697C82.4763 79.2697 81.375 78.1684 81.375 76.8224C81.375 75.4763 82.4763 74.375 83.8224 74.375C85.1684 74.375 86.2697 75.4763 86.2697 76.8224C86.2697 78.1684 85.1684 79.2697 83.8224 79.2697Z" fill="#434348"/>
<path d="M78.1778 80.5197C76.8318 80.5197 75.7305 79.4184 75.7305 78.0724C75.7305 76.7263 76.8318 75.625 78.1778 75.625C79.5239 75.625 80.6252 76.7263 80.6252 78.0724C80.6252 79.4184 79.5239 80.5197 78.1778 80.5197Z" fill="#434348"/>
<path d="M86.2699 79.2697C84.9238 79.2697 83.8225 78.1684 83.8225 76.8224C83.8225 75.4763 84.9238 74.375 86.2699 74.375C87.6159 74.375 88.7172 75.4763 88.7172 76.8224C88.7172 78.1684 87.6159 79.2697 86.2699 79.2697Z" fill="#434348"/>
<path d="M71.4474 76.8486C70.1013 76.8486 69 75.7473 69 74.4012C69 73.0552 70.1013 71.9539 71.4474 71.9539C72.7934 71.9539 73.8947 73.0552 73.8947 74.4012C73.8947 75.7473 72.7934 76.8486 71.4474 76.8486Z" fill="#434348"/>
<path d="M167.033 102.52C165.687 102.52 164.585 101.418 164.585 100.072C164.585 98.7263 165.687 97.625 167.033 97.625C168.379 97.625 169.48 98.7263 169.48 100.072C169.48 101.418 168.379 102.52 167.033 102.52Z" fill="#434348"/>
<path d="M73.2831 85.4145C71.937 85.4145 70.8357 84.3132 70.8357 82.9671C70.8357 81.6211 71.937 80.5198 73.2831 80.5198C74.6291 80.5198 75.7304 81.6211 75.7304 82.9671C75.7304 84.3132 74.6291 85.4145 73.2831 85.4145Z" fill="#434348"/>
<path d="M86.8815 81.1052C85.5354 81.1052 84.4341 80.0039 84.4341 78.6578C84.4341 77.3118 85.5354 76.2104 86.8815 76.2104C88.2275 76.2104 89.3288 77.3118 89.3288 78.6578C89.3288 80.0039 88.2275 81.1052 86.8815 81.1052Z" fill="#434348"/>
<path d="M61.1842 112.309C59.8381 112.309 58.7368 111.208 58.7368 109.862C58.7368 108.516 59.8381 107.415 61.1842 107.415C62.5302 107.415 63.6316 108.516 63.6316 109.862C63.6316 111.208 62.5302 112.309 61.1842 112.309Z" fill="#434348"/>
<path d="M56.2894 106.191C54.9434 106.191 53.842 105.089 53.842 103.743C53.842 102.397 54.9434 101.296 56.2894 101.296C57.6355 101.296 58.7368 102.397 58.7368 103.743C58.7368 105.089 57.6355 106.191 56.2894 106.191Z" fill="#434348"/>
<path d="M85.6578 5.84859C84.3118 5.84859 83.2104 4.74728 83.2104 3.40123C83.2104 2.05517 84.3118 0.953857 85.6578 0.953857C87.0039 0.953857 88.1052 2.05517 88.1052 3.40123C88.1052 4.74728 87.0039 5.84859 85.6578 5.84859Z" fill="#434348"/>
<path d="M161.447 109.895C160.101 109.895 159 108.793 159 107.447C159 106.101 160.101 105 161.447 105C162.793 105 163.895 106.101 163.895 107.447C163.895 108.793 162.793 109.895 161.447 109.895Z" fill="#434348"/>
<path d="M156.447 108.895C155.101 108.895 154 107.793 154 106.447C154 105.101 155.101 104 156.447 104C157.793 104 158.895 105.101 158.895 106.447C158.895 107.793 157.793 108.895 156.447 108.895Z" fill="#434348"/>
<path d="M173.447 105.895C172.101 105.895 171 104.793 171 103.447C171 102.101 172.101 101 173.447 101C174.793 101 175.895 102.101 175.895 103.447C175.895 104.793 174.793 105.895 173.447 105.895Z" fill="#434348"/>
<path d="M160.914 114.145C159.568 114.145 158.467 113.043 158.467 111.697C158.467 110.351 159.568 109.25 160.914 109.25C162.26 109.25 163.362 110.351 163.362 111.697C163.362 113.043 162.26 114.145 160.914 114.145Z" fill="#434348"/>
<path d="M83.8224 79.8816C82.4763 79.8816 81.375 78.7802 81.375 77.4342C81.375 76.0881 82.4763 74.9868 83.8224 74.9868C85.1684 74.9868 86.2697 76.0881 86.2697 77.4342C86.2697 78.7802 85.1684 79.8816 83.8224 79.8816Z" fill="#434348"/>
<path d="M2.44737 213.875C1.10132 213.875 0 212.774 0 211.428C0 210.082 1.10132 208.98 2.44737 208.98C3.79342 208.98 4.89474 210.082 4.89474 211.428C4.89474 212.774 3.79342 213.875 2.44737 213.875Z" fill="#434348"/>
<path d="M17.4474 263.434C16.1013 263.434 15 262.333 15 260.987C15 259.641 16.1013 258.54 17.4474 258.54C18.7934 258.54 19.8947 259.641 19.8947 260.987C19.8947 262.333 18.7934 263.434 17.4474 263.434Z" fill="#434348"/>
<path d="M166.447 108.895C165.101 108.895 164 107.793 164 106.447C164 105.101 165.101 104 166.447 104C167.793 104 168.895 105.101 168.895 106.447C168.895 107.793 167.793 108.895 166.447 108.895Z" fill="#434348"/>
<path d="M22.0262 251.809C20.6802 251.809 19.5789 250.708 19.5789 249.362C19.5789 248.016 20.6802 246.915 22.0262 246.915C23.3723 246.915 24.4736 248.016 24.4736 249.362C24.4736 250.708 23.3723 251.809 22.0262 251.809Z" fill="#434348"/>
<path d="M4.89488 223.665C3.54883 223.665 2.44751 222.563 2.44751 221.217C2.44751 219.871 3.54883 218.77 4.89488 218.77C6.24093 218.77 7.34225 219.871 7.34225 221.217C7.34225 222.563 6.24093 223.665 4.89488 223.665Z" fill="#434348"/>
</svg>
