<svg width="284" height="284" viewBox="0 0 284 284" fill="none" xmlns="http://www.w3.org/2000/svg">
<path d="M72.2782 70.3135C111.869 31.8079 175.179 32.6877 213.685 72.2787C252.19 111.869 251.31 175.179 211.719 213.685C172.128 252.19 108.818 251.311 70.313 211.72C31.8073 172.129 32.6872 108.819 72.2782 70.3135Z" fill="white"/>
<path fill-rule="evenodd" clip-rule="evenodd" d="M139.492 116.626C135.24 117.465 131.505 120.596 130.23 124.393C129.88 125.436 129.731 126.588 129.542 129.704L129.301 133.684L128.004 136.315C125.605 141.183 125.068 143.331 124.96 148.487C124.885 152.064 125.053 153.689 125.733 155.972C126.292 157.846 128.078 161.624 129.031 162.948C129.477 163.566 129.84 164.125 129.838 164.189C129.836 164.253 129.554 164.457 129.212 164.642C128.459 165.051 128.164 165.71 128.405 166.449C128.824 167.736 128.128 167.659 141.265 167.865L153.223 168.052L153.68 167.613C154.325 166.993 154.308 165.993 153.642 165.396C153.356 165.139 153.009 164.889 152.873 164.84C152.715 164.784 153.009 164.208 153.684 163.253C156.781 158.874 157.904 155.647 158.229 150.192C158.538 145.033 157.969 142.16 155.548 136.64L154.384 133.987L154.352 130.108C154.313 125.658 154.049 124.344 152.78 122.304C151.352 120.01 149.22 118.276 146.572 117.252C145.548 116.857 144.711 116.714 142.785 116.604C141.424 116.528 139.943 116.538 139.492 116.626ZM142.455 121.852C142.709 123.153 143.81 125.186 144.827 126.23C146.117 127.554 147.562 128.339 149.598 128.821L151.198 129.199L151.043 130.015C150.036 135.307 145.361 138.681 140.367 137.719C136.266 136.928 133.639 134.042 132.921 129.539L132.802 128.794L134.143 128.57C136.039 128.252 138.187 127.22 139.363 126.061C140.468 124.973 141.6 123.087 141.837 121.941C142.032 121.004 142.283 120.968 142.455 121.852Z" fill="#654924"/>
<path d="M79.9131 66.9C81.6212 65.5009 83.3596 64.9346 85.1295 65.1996C86.8889 65.4539 88.5395 66.5213 90.0819 68.4026C91.7654 70.4563 92.567 72.4681 92.4858 74.4385C92.3936 76.3961 91.4261 78.1308 89.582 79.6426C87.8867 81.032 86.1492 81.5877 84.3696 81.3084C82.5788 81.0176 80.8977 79.9129 79.3254 77.9952C77.6627 75.9658 76.8805 73.9897 76.98 72.0669C77.0918 70.1336 78.069 68.4118 79.9131 66.9ZM81.6318 69.5263C81.0495 70.0033 80.6826 70.501 80.5283 71.0194C80.3643 71.5263 80.4149 72.1061 80.6803 72.7576C80.9352 73.3969 81.4232 74.1554 82.1429 75.0345C83.0052 76.086 83.7654 76.849 84.4235 77.3235C85.0706 77.7851 85.6743 78.0042 86.234 77.9802C86.8058 77.9457 87.3944 77.6802 88.001 77.1837C88.5954 76.6962 88.9743 76.1994 89.1376 75.6932C89.2919 75.1735 89.23 74.5934 88.9525 73.9524C88.6871 73.301 88.1845 72.5231 87.444 71.6197C86.5921 70.5803 85.8423 69.8295 85.1939 69.3679C84.5462 68.9056 83.9473 68.6929 83.3981 68.7291C82.839 68.7539 82.2498 69.0186 81.6318 69.5263Z" fill="#333333"/>
<path d="M97.4779 60.5815L98.5817 62.7749L96.5621 63.8868L96.0693 64.1847L97.8905 67.3754L100.588 71.5491L97.3655 73.5021L95.1342 69.4954L92.9499 66.0762L92.4364 66.3873L90.5164 67.6633L90.2279 67.5574L89.102 65.3771L97.1887 60.4763L97.4779 60.5815Z" fill="#333333"/>
<path d="M104.927 56.6223C106.2 56.0594 107.381 56.061 108.472 56.6292C109.556 57.1824 110.45 58.2556 111.156 59.8502C111.952 61.6511 112.112 63.2416 111.639 64.6225C111.18 65.998 110.123 67.0511 108.469 67.782C108.118 67.9376 107.693 68.0824 107.192 68.2161L108.995 72.1158L105.549 73.6399L102.053 65.3188L99.308 59.5257L102.507 57.7973L103.176 59.3114L103.33 59.2436C103.535 58.68 103.76 58.1966 104 57.7926C104.256 57.3817 104.565 56.9921 104.927 56.6223ZM107.424 65.5943C108.755 65.0054 108.991 63.7385 108.13 61.7925C107.307 59.9692 106.318 59.3134 105.161 59.8241C104.679 60.0381 104.275 60.4702 103.95 61.1212L105.037 63.5789L106.119 65.9093C106.653 65.8481 107.088 65.7431 107.424 65.5943Z" fill="#333333"/>
<path d="M115.596 52.6634C116.872 52.2936 117.944 52.283 118.811 52.6309C119.673 52.964 120.252 53.6375 120.546 54.6514C120.648 55.005 120.752 55.4166 120.855 55.8869C120.957 56.3565 121.06 56.8013 121.166 57.2207C121.409 58.3492 121.592 59.1212 121.712 59.5365C121.775 59.7517 121.85 59.8963 121.939 59.9703C122.041 60.0404 122.179 60.0508 122.347 60.0015C122.485 59.9617 122.646 59.8826 122.827 59.7628L123.142 59.8966L123.373 61.9032C122.969 62.4039 122.406 62.7921 121.686 63.0671C121.212 63.1546 120.773 63.1067 120.371 62.9236C119.968 62.7405 119.623 62.4161 119.338 61.9482L119.176 61.9955C118.645 63.0326 118.024 63.821 117.313 64.3599C116.172 64.6735 115.184 64.6273 114.349 64.2197C113.53 63.8073 112.971 63.0867 112.673 62.0572C112.214 60.4745 112.774 59.3041 114.354 58.5461L117.598 56.9809L117.404 56.312C117.266 55.8363 117.061 55.5287 116.787 55.3912C116.525 55.2348 116.163 55.2227 115.703 55.3564C115.242 55.49 114.771 55.7345 114.291 56.0906C113.827 56.442 113.311 56.9326 112.744 57.5633L112.467 57.469L111.364 55.2147C111.944 54.6309 112.602 54.1146 113.339 53.6673C114.076 53.2214 114.828 52.8861 115.596 52.6634ZM116.223 59.6533C116.007 59.7663 115.857 59.9092 115.774 60.0834C115.706 60.2529 115.713 60.4764 115.793 60.7526C115.9 61.1212 116.074 61.3789 116.317 61.5251C116.574 61.6666 116.872 61.6891 117.21 61.5905C117.703 61.4482 118.15 61.0357 118.551 60.3525L118.092 58.6864L116.223 59.6533Z" fill="#333333"/>
<path d="M127.417 50.0067C128.505 49.8252 129.508 49.8533 130.422 50.0909L130.295 53.1292L130.03 53.2946C129.57 53.1602 129.175 53.0719 128.843 53.0291C128.527 52.9845 128.22 52.9866 127.92 53.0368C127.288 53.1419 126.842 53.4348 126.582 53.9156C126.336 54.3945 126.284 55.0522 126.422 55.8886C126.763 57.9406 127.652 58.8468 129.088 58.6086C129.656 58.514 130.363 58.2268 131.207 57.7463L131.527 57.9113L131.615 60.7922C130.713 61.2174 129.757 61.5145 128.747 61.6822C127.2 61.9394 125.911 61.6499 124.881 60.8152C123.863 59.9631 123.206 58.645 122.911 56.8609C122.602 54.9982 122.841 53.4662 123.632 52.2651C124.419 51.0477 125.68 50.2951 127.417 50.0067Z" fill="#333333"/>
<path d="M142.111 55.2672L142.493 60.2227L138.705 60.4041L138.654 55.8174L138.383 51.6738L136.777 51.7505L136.729 52.2576C136.551 54.5563 136.323 56.314 136.044 57.5278C135.782 58.7264 135.414 59.5847 134.943 60.1043C134.485 60.6064 133.851 60.8932 133.038 60.9639L132.199 61.0046L131.53 58.0811C132.082 57.8943 132.5 57.6023 132.785 57.2046C133.087 56.805 133.314 56.1936 133.466 55.3691C133.634 54.5277 133.768 53.3203 133.87 51.7462L134.047 49.4312L134.02 49.3842L141.979 49.0026L142.111 55.2672Z" fill="#333333"/>
<path d="M150.684 53.4296C151.991 53.5376 152.966 53.8842 153.608 54.4666C154.25 55.0505 154.528 55.8436 154.445 56.848C154.337 58.1562 153.756 59.1431 152.706 59.8102C151.655 60.478 150.268 60.7402 148.547 60.5968L144.025 60.2207L144.573 55.6663L145.004 49.0312L148.759 49.3436L148.34 53.2344L150.684 53.4296ZM149.428 58.3821C149.835 58.3199 150.162 58.1625 150.407 57.9099C150.653 57.6573 150.791 57.3559 150.82 57.0048C150.856 56.5739 150.748 56.228 150.497 55.9664C150.263 55.6902 149.914 55.5411 149.451 55.5177L148.083 55.4527L148.074 55.5721L147.928 58.1852L149.428 58.3821Z" fill="#333333"/>
<path d="M177.643 62.8228L176.002 67.5133L172.46 66.1579L174.088 62.3095L172.437 61.6522L170.918 61.1219L169.546 65.0425L166.005 63.6865L167.801 59.4655L170.066 53.2145L173.584 54.5617L171.954 58.4858L173.595 59.1656L175.06 59.7008L176.52 55.6859L180.04 57.0325L177.643 62.8228Z" fill="#333333"/>
<path d="M186.914 60.3153C188.077 60.9573 188.841 61.7084 189.207 62.5684C189.581 63.4145 189.512 64.2996 189.002 65.2239C188.825 65.546 188.605 65.9092 188.345 66.3137C188.085 66.7188 187.844 67.1065 187.621 67.4768C186.995 68.4461 186.576 69.1206 186.368 69.4989C186.259 69.6954 186.211 69.8503 186.22 69.9657C186.244 70.0884 186.332 70.1921 186.487 70.2777C186.612 70.3467 186.782 70.4035 186.996 70.4482L187.122 70.7646L185.865 72.3468C185.225 72.4143 184.553 72.2896 183.85 71.9744C183.453 71.7008 183.177 71.3568 183.022 70.9417C182.867 70.5273 182.854 70.054 182.983 69.5226L182.836 69.4413C181.726 69.7972 180.729 69.9141 179.846 69.7923C178.818 69.2059 178.153 68.4732 177.852 67.5942C177.566 66.7233 177.681 65.819 178.199 64.88C178.995 63.4371 180.22 63.0079 181.871 63.5902L185.27 64.7816L185.607 64.1725C185.847 63.7381 185.919 63.3756 185.824 63.0857C185.75 62.7891 185.503 62.5247 185.083 62.2926C184.662 62.0605 184.156 61.9007 183.566 61.8119C182.99 61.731 182.277 61.7126 181.431 61.7574L181.301 61.494L182.118 59.1207C182.942 59.1187 183.772 59.2208 184.609 59.4269C185.445 59.633 186.213 59.9294 186.914 60.3153ZM182.409 65.6959C182.175 65.6226 181.968 65.6176 181.786 65.6815C181.619 65.7535 181.466 65.9154 181.326 66.1681C181.141 66.5035 181.081 66.8096 181.149 67.0842C181.231 67.3668 181.425 67.5937 181.734 67.7634C182.183 68.0108 182.79 68.0355 183.557 67.8376L184.413 66.3368L182.409 65.6959Z" fill="#333333"/>
<path d="M198.228 67.7416C199.346 68.5697 199.928 69.599 199.973 70.8273C200.028 72.0429 199.536 73.3515 198.499 74.7528C197.328 76.334 196.024 77.26 194.589 77.5314C193.167 77.8115 191.729 77.4132 190.276 76.3372C189.968 76.1087 189.631 75.8098 189.268 75.4406L186.768 78.9361L183.741 76.6926L189.247 69.5418L192.927 64.2933L196.01 66.2187L195.025 67.5493L195.159 67.6488C195.751 67.5502 196.282 67.5053 196.752 67.5153C197.236 67.5348 197.727 67.6102 198.228 67.7416ZM191.661 74.3473C192.831 75.2136 194.049 74.7921 195.316 73.0821C196.494 71.4656 196.575 70.2808 195.559 69.5284C195.135 69.2141 194.56 69.0767 193.833 69.1168L192.234 71.2763L190.743 73.3679C191.059 73.8015 191.365 74.1275 191.661 74.3473Z" fill="#333333"/>
<path d="M207.056 75.1877C208.271 76.3707 208.859 77.6135 208.819 78.9153C208.791 80.2278 208.135 81.5438 206.851 82.8616C205.467 84.2826 204.068 85.0311 202.655 85.1058C201.253 85.192 199.904 84.6041 198.609 83.3429C197.395 82.1599 196.801 80.9112 196.829 79.5991C196.868 78.297 197.525 76.9929 198.797 75.6861C200.182 74.2655 201.575 73.5112 202.977 73.4246C204.401 73.3383 205.761 73.9265 207.056 75.1877ZM205.075 76.8426C204.617 76.3963 204.14 76.2327 203.643 76.3524C203.17 76.4717 202.564 76.9102 201.827 77.6658C201.147 78.3657 200.65 78.9542 200.34 79.4336C200.052 79.9126 199.922 80.3337 199.949 80.6947C200 81.0561 200.196 81.4046 200.54 81.7397C200.987 82.1744 201.448 82.3329 201.921 82.2129C202.417 82.0932 203.039 81.6499 203.788 80.8817C204.781 79.8624 205.364 79.0565 205.538 78.4663C205.734 77.8757 205.579 77.334 205.075 76.8426Z" fill="#333333"/>
<path d="M212.714 95.3057L208.301 98.7015L206.704 96.9019L208.841 94.6819L204.641 89.2229L202.095 90.637L200.484 88.8182L205.029 85.3206L205.527 85.9672C206.035 86.1816 206.532 86.2636 207.018 86.2125C207.527 86.1645 208.127 85.9747 208.82 85.6433C209.537 85.3141 210.538 84.7658 211.825 83.9976L213.845 82.8063L218.705 89.1208L213.657 92.7931L211.894 94.2406L212.714 95.3057ZM209.742 91.4447L211.289 90.3455L214.54 87.7228L213.501 86.3721L213.057 86.6229C211.72 87.4297 210.631 87.9951 209.79 88.3194C208.961 88.6338 208.248 88.7685 207.649 88.7248L209.742 91.4447Z" fill="#333333"/>
<path d="M220.384 104.241L216.111 106.779L214.27 103.464L217.991 101.563L217.15 99.9979L216.327 98.6156L212.756 100.736L210.915 97.4209L215.004 95.3428L220.758 92.0107L222.587 95.3045L218.815 97.262L219.635 98.838L220.413 100.19L224.113 98.0537L225.943 101.347L220.384 104.241Z" fill="#333333"/>
<path d="M226.235 119.485L221.603 121.284L220.332 117.711L224.708 116.334L230.706 114.075L232.239 117.529L226.235 119.485ZM225.614 110.714C226.037 111.905 226.11 112.898 225.832 113.693C225.554 114.488 224.94 115.054 223.991 115.392C222.754 115.831 221.621 115.725 220.591 115.072C219.566 114.434 218.776 113.331 218.218 111.764L216.731 107.58L221.107 106.203L227.331 103.863L228.592 107.414L224.874 108.634L225.614 110.714ZM220.6 111.656C220.797 111.925 221.056 112.105 221.377 112.195C221.698 112.284 222.023 112.27 222.355 112.153C222.747 112.013 223.024 111.787 223.184 111.476C223.345 111.164 223.351 110.822 223.202 110.45L222.769 109.305L222.634 109.354L220.193 110.298L220.6 111.656Z" fill="#333333"/>
<path d="M232.093 124.23L230.259 125.79L232.68 126.611L233.997 127.003L234.595 130.235L228.6 128.171L223.71 132.346L222.698 128.457L224.103 127.611L226.009 126.038L223.476 125.14L222.195 124.816L221.593 121.559L227.683 123.606L232.539 119.511L233.442 123.468L232.093 124.23Z" fill="#333333"/>
<path d="M233.628 149.221L231.441 150.228L233.551 151.672L234.714 152.404L234.418 155.678L229.202 152.073L223.366 154.775L223.441 150.757L225.022 150.322L227.282 149.321L225.084 147.773L223.939 147.115L224.238 143.816L229.549 147.43L235.33 144.796L235.132 148.851L233.628 149.221Z" fill="#333333"/>
<path d="M231.786 159.718L225.918 160.16L225.872 160.371L230.708 163.093L232.75 163.98L232.066 167.122L222.751 161.509C221.75 160.915 220.966 160.302 220.4 159.671C219.834 159.04 219.419 158.311 219.157 157.484C218.875 156.67 218.689 155.647 218.596 154.416L218.676 154.162C219.403 153.682 220.255 153.303 221.232 153.024L221.554 153.241C221.5 154.163 221.553 154.977 221.71 155.682C221.868 156.388 222.163 157.099 222.597 157.816L234.369 156.202L233.744 159.751L231.786 159.718Z" fill="#333333"/>
<path d="M219.649 176.743L214.42 174.83L215.087 172.518L218.106 173.137L220.472 166.669L217.916 165.274L218.592 162.939L223.978 164.911L223.698 165.677C223.788 166.221 223.985 166.685 224.288 167.068C224.6 167.472 225.082 167.878 225.733 168.287C226.393 168.716 227.392 169.269 228.73 169.945L230.817 171.016L228.079 178.499L222.276 176.197L220.111 175.481L219.649 176.743ZM221.323 172.168L223.079 172.887L227.034 174.231L227.619 172.631L227.17 172.391C225.773 171.692 224.713 171.074 223.99 170.537C223.282 170.005 222.785 169.475 222.502 168.945L221.323 172.168Z" fill="#333333"/>
<path d="M224.643 186.133C223.841 187.627 222.808 188.535 221.546 188.855C220.276 189.191 218.831 188.922 217.21 188.052C215.463 187.113 214.358 185.974 213.896 184.637C213.427 183.313 213.62 181.854 214.476 180.262C215.278 178.768 216.314 177.854 217.584 177.518C218.847 177.197 220.281 177.469 221.888 178.332C223.636 179.271 224.744 180.402 225.213 181.726C225.689 183.072 225.499 184.541 224.643 186.133ZM222.507 184.685C222.809 184.122 222.834 183.618 222.583 183.174C222.338 182.751 221.75 182.29 220.82 181.79C219.96 181.328 219.257 181.014 218.711 180.848C218.171 180.703 217.731 180.694 217.39 180.82C217.057 180.968 216.776 181.253 216.55 181.675C216.254 182.225 216.229 182.711 216.474 183.134C216.726 183.578 217.324 184.054 218.269 184.561C219.523 185.235 220.458 185.574 221.073 185.578C221.696 185.603 222.173 185.306 222.507 184.685Z" fill="#333333"/>
<path d="M209.187 199.698C207.306 199.439 205.123 199.231 202.639 199.073L202.349 198.82C202.715 198.031 203.3 196.996 204.104 195.718L204.505 195.512C206.921 195.758 209.037 196.106 210.852 196.556L210.373 196.156L206.336 193.256L208.65 190.253L212.178 193.185L213.03 193.81C212.074 192.063 211.191 190.09 210.381 187.89L210.464 187.469C211.528 186.35 212.379 185.521 213.017 184.982L213.336 185.198C214.182 187.69 214.945 189.741 215.62 191.354L221.605 191.846L219.217 194.944L217.906 194.6L213.538 194.173L217.531 197.13L215.231 200.114L211.422 196.996L212.894 201.101L213.56 202.28L211.172 205.378L209.187 199.698Z" fill="#333333"/>
<path d="M198.59 208.555L203.148 204.224C202.499 203.692 201.867 203.44 201.255 203.465C200.643 203.49 200.028 203.792 199.408 204.371C198.789 204.951 198.141 205.897 197.463 207.21L197.122 207.267L195.689 204.893C196.351 203.726 197.061 202.788 197.821 202.077C199.164 200.82 200.577 200.21 202.058 200.248C203.528 200.297 204.886 200.988 206.132 202.319C207.379 203.651 207.989 205.041 207.964 206.489C207.949 207.949 207.311 209.269 206.049 210.45C204.963 211.466 203.848 211.961 202.706 211.935C201.552 211.919 200.488 211.391 199.515 210.352C199.198 210.013 198.9 209.624 198.62 209.184L198.59 208.555ZM202.195 208.403C202.949 209.209 203.677 209.284 204.378 208.628C204.775 208.257 204.976 207.816 204.982 207.307C204.999 206.809 204.824 206.271 204.459 205.693L202 208.125L202.195 208.403Z" fill="#333333"/>
<path d="M196.931 218.01C196.044 218.666 195.138 219.097 194.215 219.302L192.948 216.538L193.108 216.27C193.579 216.18 193.972 216.079 194.286 215.966C194.587 215.863 194.861 215.72 195.105 215.54C195.62 215.159 195.883 214.695 195.897 214.148C195.897 213.611 195.646 213.001 195.141 212.319C193.905 210.647 192.701 210.243 191.53 211.109C191.067 211.451 190.569 212.029 190.035 212.841L189.675 212.839L188.286 210.314C188.896 209.524 189.613 208.825 190.437 208.216C191.697 207.284 192.976 206.955 194.274 207.23C195.568 207.527 196.752 208.402 197.827 209.856C198.949 211.374 199.432 212.848 199.275 214.277C199.128 215.719 198.346 216.963 196.931 218.01Z" fill="#333333"/>
<path d="M185.149 224.861L184.086 222.647L186.127 221.574L186.625 221.285L184.865 218.061L182.247 213.836L185.506 211.945L187.662 215.994L189.781 219.454L190.299 219.153L192.244 217.913L192.531 218.024L193.614 220.226L185.436 224.972L185.149 224.861Z" fill="#333333"/>
<path d="M174.048 224.143C173.289 224.239 172.674 224.161 172.202 223.909C171.73 223.657 171.366 223.23 171.11 222.626C170.654 221.551 170.761 220.575 171.433 219.699C172.095 218.845 173.281 218.055 174.99 217.33C176.183 216.823 177.546 216.288 179.079 215.725L180.715 220.01L183.422 226.083L178.319 228.248C177.111 228.761 176.086 228.926 175.245 228.745C174.409 228.578 173.81 228.067 173.448 227.213C173.229 226.697 173.169 226.167 173.267 225.621C173.372 225.09 173.632 224.597 174.048 224.143ZM179.312 225.428L178.441 223.191L176.889 223.771C176.594 224.018 176.413 224.269 176.347 224.523C176.266 224.783 176.295 225.075 176.432 225.399C176.595 225.782 176.85 225.995 177.199 226.038C177.547 226.082 178.09 225.947 178.826 225.635L179.312 225.428ZM175.357 219.546C174.871 219.753 174.539 220.015 174.361 220.334C174.183 220.653 174.176 221.003 174.338 221.386C174.451 221.651 174.622 221.831 174.853 221.924C175.069 222.023 175.376 222.05 175.773 222.003L177.62 221.193L176.675 219.091C176.223 219.213 175.784 219.365 175.357 219.546Z" fill="#333333"/>
<path d="M161.786 227.157L167.831 225.427C167.5 224.655 167.058 224.139 166.504 223.878C165.95 223.617 165.264 223.6 164.447 223.827C163.63 224.054 162.617 224.593 161.409 225.443L161.08 225.336L160.909 222.568C162.035 221.84 163.099 221.337 164.101 221.058C165.874 220.566 167.408 220.679 168.704 221.398C169.985 222.122 170.869 223.362 171.357 225.12C171.846 226.877 171.744 228.392 171.051 229.663C170.363 230.951 169.186 231.826 167.521 232.289C166.088 232.687 164.871 232.61 163.87 232.058C162.854 231.51 162.156 230.55 161.774 229.178C161.65 228.731 161.566 228.248 161.521 227.729L161.786 227.157ZM165.052 228.691C165.347 229.754 165.957 230.158 166.882 229.9C167.407 229.755 167.789 229.458 168.029 229.009C168.274 228.575 168.368 228.018 168.312 227.336L165.008 228.354L165.052 228.691Z" fill="#333333"/>
<path d="M149.001 229.148L148.206 224.242L151.965 223.744L152.371 227.903L154.134 227.694L155.722 227.435L155.058 223.335L158.817 222.837L159.252 227.403L160.244 233.978L156.509 234.473L156.07 230.246L154.303 230.431L152.76 230.66L153.392 234.885L149.657 235.38L149.001 229.148Z" fill="#333333"/>
<path d="M136.282 229.234L136.207 224.264L139.998 224.317L139.796 228.49L141.572 228.539L143.18 228.513L143.118 224.36L146.91 224.413L146.678 228.994L146.706 235.643L142.938 235.591L143.117 231.345L141.342 231.272L139.782 231.274L139.794 235.547L136.027 235.495L136.282 229.234Z" fill="#333333"/>
<path d="M120.456 226.829L121.193 221.914L124.925 222.584L123.95 227.066L122.935 233.394L119.175 233.012L120.456 226.829ZM128.379 230.642C127.135 230.418 126.237 229.989 125.685 229.353C125.132 228.717 124.945 227.903 125.123 226.911C125.355 225.62 126.01 224.689 127.088 224.119C128.15 223.545 129.5 223.406 131.138 223.7L135.508 224.485L134.532 228.967L133.475 235.531L129.766 234.865L130.552 231.032L128.379 230.642ZM130.05 225.821C129.718 225.859 129.433 225.995 129.196 226.229C128.959 226.462 128.81 226.752 128.747 227.099C128.674 227.508 128.732 227.86 128.923 228.155C129.114 228.449 129.408 228.624 129.805 228.679L131.014 228.871L131.039 228.73L131.431 226.142L130.05 225.821Z" fill="#333333"/>
<path d="M113.16 229.556L112.716 227.189L110.802 228.885L109.809 229.834L106.705 228.751L111.47 224.568L110.269 218.251L114.148 219.3L114.186 220.94L114.606 223.375L116.643 221.62L117.559 220.669L120.686 221.761L115.89 226.034L117.038 232.282L113.154 231.104L113.16 229.556Z" fill="#333333"/>
<path d="M88.6536 210.759L91.2497 206.862L94.3392 209.06L91.692 212.449L89.2795 216.005L91.7042 217.731L94.0506 214.599L96.6466 210.702L99.7362 212.901L97.1085 216.304L93.185 222.025L84.718 215.999L88.6536 210.759Z" fill="#333333"/>
<path d="M76.9682 209.313C75.9637 208.35 75.5166 207.256 75.6268 206.031C75.7262 204.819 76.379 203.582 77.5866 202.324C78.9484 200.904 80.3586 200.15 81.8165 200.063C83.2632 199.965 84.6387 200.542 85.9436 201.793C86.2207 202.059 86.5163 202.398 86.8305 202.81L89.7522 199.66L92.4715 202.268L86.1038 208.665L81.7893 213.405L78.9746 211.105L80.1209 209.91L79.9996 209.793C79.4004 209.817 78.8681 209.794 78.4027 209.725C77.9257 209.644 77.4476 209.507 76.9682 209.313ZM84.3176 203.593C83.2669 202.585 82.005 202.849 80.5319 204.384C79.1591 205.839 78.9287 207.004 79.841 207.879C80.2219 208.244 80.7751 208.453 81.5005 208.506L83.3611 206.566L85.1041 204.68C84.8453 204.21 84.5832 203.847 84.3176 203.593Z" fill="#333333"/>
<path d="M68.8863 200.542C67.8364 199.21 67.4163 197.901 67.6253 196.615C67.825 195.318 68.6473 194.099 70.0924 192.96C71.6506 191.732 73.1356 191.174 74.5467 191.284C75.9479 191.382 77.2075 192.14 78.3264 193.56C79.3763 194.892 79.8014 196.207 79.6024 197.506C79.3927 198.791 78.5718 199.998 77.1396 201.127C75.5807 202.355 74.1014 202.92 72.7002 202.822C71.2763 202.722 70.0052 201.962 68.8863 200.542ZM71.0664 199.159C71.4628 199.662 71.9147 199.887 72.4221 199.833C72.9074 199.777 73.5648 199.422 74.3944 198.768C75.1607 198.164 75.7292 197.644 76.0999 197.21C76.4477 196.773 76.632 196.373 76.6518 196.011C76.6496 195.646 76.5001 195.275 76.2026 194.898C75.8168 194.408 75.3813 194.191 74.8959 194.248C74.3879 194.301 73.7134 194.66 72.8717 195.324C71.7532 196.205 71.0695 196.927 70.8205 197.49C70.5488 198.05 70.6308 198.607 71.0664 199.159Z" fill="#333333"/>
<path d="M64.2007 194.052L62.3223 190.758L63.5172 189.607L66.6072 186.354L66.512 186.187L62.1713 187.005L60.4323 187.443L58.578 184.191L67.838 177.805L69.3363 180.432L66.3784 182.174L63.8498 183.892L63.9567 184.08L69.7266 183.248L70.951 185.396L67.1547 189.688L67.2499 189.855L69.7274 188.773L73.129 187.083L74.5197 189.522L64.2007 194.052Z" fill="#333333"/>
<path d="M58.0236 165.723L62.6565 163.923L63.9266 167.496L59.5515 168.873L53.5539 171.133L52.0206 167.679L58.0236 165.723ZM58.6454 174.493C58.222 173.302 58.149 172.309 58.4269 171.514C58.7048 170.719 59.3186 170.153 60.2683 169.815C61.5045 169.376 62.638 169.483 63.6681 170.136C64.6924 170.773 65.4835 171.876 66.0411 173.444L67.5276 177.627L63.1525 179.004L56.9288 181.344L55.6668 177.794L59.385 176.574L58.6454 174.493ZM63.6597 173.552C63.462 173.282 63.2025 173.102 62.8818 173.012C62.5619 172.923 62.2353 172.937 61.9041 173.055C61.5117 173.194 61.2353 173.42 61.0748 173.732C60.9137 174.044 60.9079 174.385 61.0568 174.757L61.4897 175.902L61.6254 175.854L64.0661 174.91L63.6597 173.552Z" fill="#333333"/>
<path d="M50.2063 159.849C49.9936 158.766 49.9928 157.763 50.2033 156.842L53.2438 156.881L53.4165 157.14C53.2961 157.604 53.2194 158.002 53.1863 158.335C53.1512 158.652 53.1624 158.959 53.2211 159.258C53.3443 159.886 53.6504 160.323 54.1388 160.569C54.6243 160.8 55.2835 160.834 56.1156 160.671C58.1561 160.269 59.0363 159.355 58.7563 157.927C58.645 157.361 58.3369 156.663 57.8319 155.833L57.9879 155.509L60.8649 155.336C61.3161 156.225 61.6412 157.173 61.8378 158.177C62.1402 159.716 61.8896 161.013 61.0853 162.067C60.2624 163.109 58.964 163.804 57.19 164.152C55.3374 164.516 53.7994 164.321 52.5747 163.566C51.3348 162.815 50.5458 161.576 50.2063 159.849Z" fill="#333333"/>
<path d="M55.0119 144.792L59.9559 144.285L60.2339 148.067L55.6502 148.235L51.5145 148.611L51.6325 150.215L52.1403 150.25C54.443 150.369 56.2051 150.552 57.4267 150.8C58.6309 151.032 59.4989 151.377 60.03 151.836C60.5437 152.279 60.8466 152.907 60.9378 153.718L60.9997 154.556L58.0944 155.299C57.8937 154.752 57.5907 154.341 57.1859 154.066C56.7795 153.775 56.1622 153.564 55.334 153.432C54.4891 153.286 53.2786 153.182 51.7017 153.122L49.3826 153.003L49.3368 153.031L48.7526 145.084L55.0119 144.792Z" fill="#333333"/>
<path d="M48.6782 137.67C48.7756 135.976 49.329 134.718 50.3378 133.895C51.3474 133.055 52.7712 132.689 54.6077 132.794C56.5886 132.908 58.0705 133.474 59.0534 134.492C60.0378 135.495 60.4778 136.899 60.3736 138.703C60.2762 140.396 59.7228 141.663 58.7132 142.503C57.7036 143.325 56.2887 143.685 54.4682 143.58C52.4873 143.466 51.0047 142.908 50.021 141.906C49.022 140.887 48.574 139.474 48.6782 137.67ZM51.227 138.081C51.19 138.72 51.3792 139.187 51.7947 139.483C52.1955 139.763 52.9229 139.933 53.9774 139.994C54.9514 140.05 55.7218 140.039 56.2871 139.959C56.8372 139.862 57.2401 139.685 57.4959 139.428C57.7357 139.153 57.8695 138.776 57.8973 138.297C57.9329 137.673 57.7509 137.223 57.3501 136.943C56.9346 136.647 56.1919 136.468 55.1212 136.406C53.6995 136.324 52.7089 136.411 52.1496 136.668C51.575 136.907 51.2673 137.378 51.227 138.081Z" fill="#333333"/>
<path d="M56.369 122.955C56.7138 122.273 57.1228 121.806 57.5953 121.556C58.0678 121.306 58.6264 121.244 59.2698 121.369C60.4167 121.592 61.1652 122.227 61.5154 123.273C61.8532 124.301 61.8444 125.725 61.4899 127.547C61.242 128.819 60.9228 130.248 60.533 131.835L56.0656 130.794L49.5167 129.641L50.5765 124.199C50.8275 122.911 51.2638 121.97 51.8853 121.373C52.4905 120.774 53.2492 120.563 54.1599 120.74C54.7096 120.847 55.1829 121.094 55.5806 121.482C55.9619 121.866 56.2252 122.357 56.369 122.955ZM52.3588 126.6L54.7005 127.129L55.088 125.518C55.0484 125.135 54.9417 124.846 54.7682 124.649C54.5979 124.437 54.3393 124.296 53.9939 124.229C53.586 124.15 53.266 124.242 53.0353 124.507C52.8045 124.772 52.6122 125.296 52.4598 126.082L52.3588 126.6ZM59.4471 126.611C59.5482 126.093 59.5161 125.671 59.3514 125.346C59.1868 125.02 58.9002 124.818 58.4916 124.738C58.2087 124.683 57.9644 124.725 57.7581 124.864C57.5549 124.988 57.361 125.227 57.1777 125.582L56.8162 127.566L59.0868 127.959C59.2384 127.516 59.3587 127.067 59.4471 126.611Z" fill="#333333"/>
<path d="M59.3666 107.919C59.2171 107.836 59.1553 107.653 59.2244 107.497C59.7686 106.257 62.0466 101.127 63.8796 97.8413C65.7119 94.5555 68.8802 89.9215 69.6485 88.8073C69.746 88.6664 69.934 88.6231 70.0836 88.7064L71.8273 89.6791C71.9996 89.7751 72.0537 89.9959 71.9417 90.1579C71.1157 91.3574 68.0137 95.9032 66.2085 99.1404C64.4026 102.377 62.1647 107.405 61.5784 108.738C61.499 108.918 61.2827 108.988 61.1104 108.892L59.3666 107.919Z" fill="#333333"/>
</svg>
