<svg width="386" height="595" viewBox="0 0 386 595" fill="none" xmlns="http://www.w3.org/2000/svg">
<path fill-rule="evenodd" clip-rule="evenodd" d="M55.2912 93.4873C69.1495 49.1952 111.648 12.0072 160.665 1.27896C165.864 0.14108 183.019 -0.324954 198.787 0.240437C221.117 1.04239 230.842 2.502 242.789 6.84297C273.688 18.0704 298.784 37.6721 315.859 63.9167C331.038 87.2491 334.418 102.418 335.916 153.982L337.223 198.929L351.324 229.399C380.664 292.798 387.929 325.958 385.594 385.816C383.125 449.116 370.89 486.782 336.077 538.275C328.486 549.505 325.217 556.244 327.061 556.859C328.654 557.392 332.721 560.207 336.1 563.114C343.951 569.875 344.383 581.467 337.06 588.803L331.875 593.993L193.382 594.674C69.7005 595.284 51.9032 595.875 46.7999 588.116C45.6256 586.331 45.1234 584.103 44.1579 581.332C41.1967 572.825 44.4533 565.111 53.0769 560.197C56.9928 557.966 60.2021 555.537 60.2116 554.797C60.2187 554.054 55.8844 547.666 50.5765 540.603C39.2281 525.493 17.649 482.133 10.7341 460.542C2.31373 434.25 -0.0164556 415.46 8.72993e-05 373.987C0.02372 314.2 5.73103 289.181 32.3486 232.2L46.7362 201.397L48.5819 155.217C50.0282 119.058 51.484 105.661 55.2912 93.4873Z" fill="#E5D3BC"/>
</svg>
