<svg width="192" height="295" viewBox="0 0 192 295" fill="none" xmlns="http://www.w3.org/2000/svg">
<path fill-rule="evenodd" clip-rule="evenodd" d="M27.4133 46.3509C34.2842 24.3909 55.355 5.95314 79.6574 0.634105C82.2351 0.069947 90.7405 -0.161112 98.5582 0.119208C109.63 0.516816 114.451 1.24049 120.374 3.39273C135.694 8.95925 148.137 18.6778 156.602 31.6898C164.128 43.2579 165.804 50.7785 166.546 76.3439L167.194 98.6287L174.186 113.735C188.733 145.169 192.335 161.609 191.177 191.287C189.952 222.671 183.887 241.345 166.626 266.876C162.863 272.443 161.242 275.785 162.156 276.09C162.946 276.354 164.962 277.75 166.638 279.191C170.53 282.543 170.745 288.29 167.114 291.927L164.543 294.501L95.8785 294.838C34.5574 295.141 25.7335 295.434 23.2033 291.587C22.6211 290.702 22.3721 289.597 21.8934 288.223C20.4252 284.006 22.0399 280.181 26.3154 277.745C28.2569 276.639 29.8481 275.434 29.8528 275.067C29.8563 274.699 27.7074 271.532 25.0757 268.03C19.4492 260.539 8.75035 239.041 5.32194 228.336C1.14714 215.3 -0.00815867 205.984 4.32828e-05 185.422C0.0117604 155.78 2.84143 143.375 16.0384 115.124L23.1717 99.852L24.0868 76.9561C24.8039 59.0286 25.5257 52.3865 27.4133 46.3509Z" fill="#C19253"/>
</svg>
