<svg width="296" height="455" viewBox="0 0 296 455" fill="none" xmlns="http://www.w3.org/2000/svg">
<path fill-rule="evenodd" clip-rule="evenodd" d="M42.2815 71.4903C52.879 37.6199 85.3781 9.18197 122.861 0.978027C126.837 0.107884 139.956 -0.248494 152.013 0.183863C169.09 0.797124 176.526 1.91329 185.662 5.23286C209.291 13.8185 228.482 28.8081 241.539 48.8775C253.147 66.7199 255.731 78.3194 256.877 117.751L257.876 152.122L268.66 175.423C291.096 223.904 296.652 249.262 294.866 295.035C292.978 343.441 283.622 372.245 257 411.622C251.195 420.209 248.696 425.363 250.105 425.834C251.323 426.241 254.433 428.393 257.018 430.617C263.021 435.787 263.352 444.651 257.751 450.261L253.786 454.23L147.88 454.751C53.3004 455.217 39.6907 455.669 35.7882 449.736C34.8901 448.37 34.5061 446.667 33.7678 444.548C31.5033 438.043 33.9937 432.143 40.5882 428.386C43.5827 426.68 46.0369 424.822 46.0441 424.256C46.0496 423.688 42.7351 418.804 38.6762 413.402C29.9979 401.848 13.4963 368.69 8.20841 352.179C1.76932 332.073 -0.0125837 317.704 6.67583e-05 285.99C0.0181389 240.271 4.38255 221.138 24.7371 177.564L35.7394 154.009L37.1509 118.695C38.2569 91.0441 39.3701 80.7996 42.2815 71.4903Z" fill="#D9BD96"/>
</svg>
